<svg width="268" height="71" viewBox="0 0 268 71" fill="none" xmlns="http://www.w3.org/2000/svg">
<path d="M45.7163 61.3379C44.6016 61.3379 43.5983 61.1468 42.7066 60.7646C41.8148 60.3665 41.1142 59.8091 40.6046 59.0925C40.095 58.376 39.8402 57.5399 39.8402 56.5845H42.7544C42.8181 57.3011 43.0967 57.8903 43.5904 58.3521C44.1 58.8139 44.8086 59.0448 45.7163 59.0448C46.6558 59.0448 47.3883 58.8218 47.9138 58.376C48.4393 57.9142 48.702 57.325 48.702 56.6084C48.702 56.051 48.5348 55.5972 48.2004 55.2469C47.8819 54.8965 47.4759 54.6258 46.9822 54.4347C46.5045 54.2436 45.8357 54.0366 44.9758 53.8137C43.8929 53.5271 43.0091 53.2404 42.3244 52.9538C41.6556 52.6512 41.0823 52.1894 40.6046 51.5684C40.1269 50.9473 39.888 50.1193 39.888 49.0842C39.888 48.1288 40.1269 47.2927 40.6046 46.5762C41.0823 45.8596 41.7511 45.3102 42.611 44.928C43.4709 44.5458 44.4662 44.3547 45.5968 44.3547C47.2052 44.3547 48.5189 44.7608 49.5381 45.5729C50.5731 46.3691 51.1464 47.4679 51.2579 48.8692H48.2482C48.2004 48.2641 47.9138 47.7466 47.3883 47.3166C46.8628 46.8867 46.1701 46.6717 45.3102 46.6717C44.5299 46.6717 43.8929 46.8707 43.3993 47.2689C42.9056 47.667 42.6588 48.2402 42.6588 48.9887C42.6588 49.4982 42.8101 49.9202 43.1127 50.2546C43.4311 50.5731 43.8292 50.8279 44.307 51.019C44.7847 51.2101 45.4376 51.4171 46.2656 51.64C47.3644 51.9426 48.2562 52.2452 48.9409 52.5477C49.6416 52.8503 50.2308 53.32 50.7085 53.957C51.2021 54.578 51.449 55.4141 51.449 56.4651C51.449 57.309 51.2181 58.1053 50.7563 58.8537C50.3104 59.6021 49.6495 60.2072 48.7737 60.669C47.9138 61.1149 46.8946 61.3379 45.7163 61.3379ZM63.8105 61.1707L57.3851 53.742V61.1707H54.662V44.5697H57.3851V52.1416L63.8344 44.5697H67.2501L60.0364 52.8821L67.3695 61.1707H63.8105ZM82.079 44.5697L76.5851 55.1513V61.1707H73.8621V55.1513L68.3444 44.5697H71.3779L75.2236 52.7149L79.0693 44.5697H82.079ZM86.963 58.9731H92.5762V61.1707H84.2399V44.5697H86.963V58.9731ZM104.862 57.7788H97.9109L96.7166 61.1707H93.8741L99.8218 44.5458H102.975L108.922 61.1707H106.056L104.862 57.7788ZM104.097 55.5574L101.398 47.8421L98.6753 55.5574H104.097ZM120.131 61.1707L116.31 54.5303H114.232V61.1707H111.509V44.5697H117.241C118.515 44.5697 119.59 44.7926 120.466 45.2385C121.358 45.6844 122.018 46.2816 122.448 47.03C122.894 47.7784 123.117 48.6144 123.117 49.538C123.117 50.6209 122.799 51.6082 122.162 52.4999C121.541 53.3758 120.577 53.9729 119.272 54.2914L123.38 61.1707H120.131ZM114.232 52.3566H117.241C118.26 52.3566 119.025 52.1018 119.534 51.5923C120.06 51.0827 120.323 50.398 120.323 49.538C120.323 48.6781 120.068 48.0093 119.558 47.5316C119.049 47.038 118.276 46.7911 117.241 46.7911H114.232V52.3566ZM135.749 61.1707L129.324 53.742V61.1707H126.601V44.5697H129.324V52.1416L135.773 44.5697H139.189L131.975 52.8821L139.308 61.1707H135.749ZM150.644 58.9731H156.257V61.1707H147.921V44.5697H150.644V58.9731ZM166.107 61.3379C164.562 61.3379 163.137 60.9796 161.831 60.263C160.541 59.5305 159.514 58.5193 158.75 57.2294C158.001 55.9236 157.627 54.4586 157.627 52.8344C157.627 51.2101 158.001 49.753 158.75 48.4632C159.514 47.1733 160.541 46.1701 161.831 45.4535C163.137 44.721 164.562 44.3547 166.107 44.3547C167.667 44.3547 169.092 44.721 170.382 45.4535C171.688 46.1701 172.715 47.1733 173.463 48.4632C174.212 49.753 174.586 51.2101 174.586 52.8344C174.586 54.4586 174.212 55.9236 173.463 57.2294C172.715 58.5193 171.688 59.5305 170.382 60.263C169.092 60.9796 167.667 61.3379 166.107 61.3379ZM166.107 58.9731C167.205 58.9731 168.185 58.7263 169.045 58.2326C169.904 57.7231 170.573 57.0065 171.051 56.0829C171.545 55.1434 171.791 54.0605 171.791 52.8344C171.791 51.6082 171.545 50.5333 171.051 49.6097C170.573 48.6861 169.904 47.9775 169.045 47.4838C168.185 46.9902 167.205 46.7434 166.107 46.7434C165.008 46.7434 164.028 46.9902 163.169 47.4838C162.309 47.9775 161.632 48.6861 161.138 49.6097C160.66 50.5333 160.422 51.6082 160.422 52.8344C160.422 54.0605 160.66 55.1434 161.138 56.0829C161.632 57.0065 162.309 57.7231 163.169 58.2326C164.028 58.7263 165.008 58.9731 166.107 58.9731ZM189.28 49.347C188.851 48.5189 188.253 47.8979 187.489 47.4838C186.725 47.0539 185.841 46.8389 184.838 46.8389C183.739 46.8389 182.76 47.0857 181.9 47.5794C181.04 48.073 180.363 48.7737 179.869 49.6814C179.392 50.589 179.153 51.64 179.153 52.8344C179.153 54.0287 179.392 55.0876 179.869 56.0112C180.363 56.9189 181.04 57.6196 181.9 58.1132C182.76 58.6069 183.739 58.8537 184.838 58.8537C186.319 58.8537 187.521 58.4397 188.444 57.6116C189.368 56.7835 189.933 55.6609 190.14 54.2436H183.906V52.07H193.055V54.1959C192.879 55.4857 192.418 56.6721 191.669 57.7549C190.937 58.8378 189.973 59.7056 188.779 60.3585C187.6 60.9955 186.287 61.314 184.838 61.314C183.277 61.314 181.852 60.9557 180.562 60.2391C179.272 59.5066 178.245 58.4954 177.481 57.2055C176.732 55.9157 176.358 54.4586 176.358 52.8344C176.358 51.2101 176.732 49.753 177.481 48.4632C178.245 47.1733 179.272 46.1701 180.562 45.4535C181.868 44.721 183.293 44.3547 184.838 44.3547C186.605 44.3547 188.174 44.7926 189.543 45.6685C190.929 46.5284 191.932 47.7545 192.553 49.347H189.28ZM198.463 44.5697V61.1707H195.74V44.5697H198.463ZM207.508 61.3379C206.394 61.3379 205.39 61.1468 204.499 60.7646C203.607 60.3665 202.906 59.8091 202.397 59.0925C201.887 58.376 201.632 57.5399 201.632 56.5845H204.546C204.61 57.3011 204.889 57.8903 205.382 58.3521C205.892 58.8139 206.601 59.0448 207.508 59.0448C208.448 59.0448 209.18 58.8218 209.706 58.376C210.231 57.9142 210.494 57.325 210.494 56.6084C210.494 56.051 210.327 55.5972 209.992 55.2469C209.674 54.8965 209.268 54.6258 208.774 54.4347C208.297 54.2436 207.628 54.0366 206.768 53.8137C205.685 53.5271 204.801 53.2404 204.116 52.9538C203.448 52.6512 202.874 52.1894 202.397 51.5684C201.919 50.9473 201.68 50.1193 201.68 49.0842C201.68 48.1288 201.919 47.2927 202.397 46.5762C202.874 45.8596 203.543 45.3102 204.403 44.928C205.263 44.5458 206.258 44.3547 207.389 44.3547C208.997 44.3547 210.311 44.7608 211.33 45.5729C212.365 46.3691 212.938 47.4679 213.05 48.8692H210.04C209.992 48.2641 209.706 47.7466 209.18 47.3166C208.655 46.8867 207.962 46.6717 207.102 46.6717C206.322 46.6717 205.685 46.8707 205.191 47.2689C204.698 47.667 204.451 48.2402 204.451 48.9887C204.451 49.4982 204.602 49.9202 204.905 50.2546C205.223 50.5731 205.621 50.8279 206.099 51.019C206.577 51.2101 207.23 51.4171 208.058 51.64C209.156 51.9426 210.048 52.2452 210.733 52.5477C211.434 52.8503 212.023 53.32 212.501 53.957C212.994 54.578 213.241 55.4141 213.241 56.4651C213.241 57.309 213.01 58.1053 212.548 58.8537C212.102 59.6021 211.442 60.2072 210.566 60.669C209.706 61.1149 208.687 61.3379 207.508 61.3379ZM227.179 44.5697V46.7911H222.76V61.1707H220.037V46.7911H215.594V44.5697H227.179ZM232.66 44.5697V61.1707H229.937V44.5697H232.66ZM235.327 52.8344C235.327 51.2101 235.701 49.753 236.45 48.4632C237.214 47.1733 238.241 46.1701 239.531 45.4535C240.837 44.721 242.262 44.3547 243.807 44.3547C245.574 44.3547 247.143 44.7926 248.512 45.6685C249.898 46.5284 250.901 47.7545 251.522 49.347H248.25C247.82 48.4711 247.223 47.8182 246.458 47.3883C245.694 46.9583 244.81 46.7434 243.807 46.7434C242.708 46.7434 241.729 46.9902 240.869 47.4838C240.009 47.9775 239.332 48.6861 238.838 49.6097C238.361 50.5333 238.122 51.6082 238.122 52.8344C238.122 54.0605 238.361 55.1354 238.838 56.059C239.332 56.9826 240.009 57.6992 240.869 58.2088C241.729 58.7024 242.708 58.9492 243.807 58.9492C244.81 58.9492 245.694 58.7343 246.458 58.3043C247.223 57.8744 247.82 57.2215 248.25 56.3456H251.522C250.901 57.938 249.898 59.1642 248.512 60.0241C247.143 60.884 245.574 61.314 243.807 61.314C242.246 61.314 240.821 60.9557 239.531 60.2391C238.241 59.5066 237.214 58.4954 236.45 57.2055C235.701 55.9157 235.327 54.4586 235.327 52.8344ZM260.179 61.3379C259.065 61.3379 258.061 61.1468 257.17 60.7646C256.278 60.3665 255.577 59.8091 255.068 59.0925C254.558 58.376 254.303 57.5399 254.303 56.5845H257.217C257.281 57.3011 257.56 57.8903 258.053 58.3521C258.563 58.8139 259.272 59.0448 260.179 59.0448C261.119 59.0448 261.851 58.8218 262.377 58.376C262.902 57.9142 263.165 57.325 263.165 56.6084C263.165 56.051 262.998 55.5972 262.664 55.2469C262.345 54.8965 261.939 54.6258 261.445 54.4347C260.968 54.2436 260.299 54.0366 259.439 53.8137C258.356 53.5271 257.472 53.2404 256.788 52.9538C256.119 52.6512 255.545 52.1894 255.068 51.5684C254.59 50.9473 254.351 50.1193 254.351 49.0842C254.351 48.1288 254.59 47.2927 255.068 46.5762C255.545 45.8596 256.214 45.3102 257.074 44.928C257.934 44.5458 258.929 44.3547 260.06 44.3547C261.668 44.3547 262.982 44.7608 264.001 45.5729C265.036 46.3691 265.61 47.4679 265.721 48.8692H262.711C262.664 48.2641 262.377 47.7466 261.851 47.3166C261.326 46.8867 260.633 46.6717 259.773 46.6717C258.993 46.6717 258.356 46.8707 257.862 47.2689C257.369 47.667 257.122 48.2402 257.122 48.9887C257.122 49.4982 257.273 49.9202 257.576 50.2546C257.894 50.5731 258.292 50.8279 258.77 51.019C259.248 51.2101 259.901 51.4171 260.729 51.64C261.828 51.9426 262.719 52.2452 263.404 52.5477C264.105 52.8503 264.694 53.32 265.172 53.957C265.665 54.578 265.912 55.4141 265.912 56.4651C265.912 57.309 265.681 58.1053 265.219 58.8537C264.773 59.6021 264.113 60.2072 263.237 60.669C262.377 61.1149 261.358 61.3379 260.179 61.3379Z" fill="white"/>
<path fill-rule="evenodd" clip-rule="evenodd" d="M26.18 1C41.7291 21.3389 48.0758 33.1801 33.4786 47.4455C42.0159 43.0395 46.2511 39.981 49.7345 34.8389C52.1633 31.5788 53.7011 30.389 56.7014 29.1991C58.6597 28.7271 60.1087 28.9724 63.0047 29.8626C59.8016 26.6095 57.6966 24.3886 56.0379 24.2227C53.6199 24.1792 52.1627 24.4082 49.4028 25.218C42.5854 16.5029 37.6663 11.255 26.18 1ZM58.3601 26.545C58.2848 26.7678 58.0774 26.9432 57.6966 26.8768C57.4035 26.6893 57.2396 26.4247 56.8672 25.8815C57.7294 26.0184 58.0642 26.3115 58.3601 26.545Z" fill="white"/>
<path d="M0.63501 60.0521C22.9665 51.1193 35.9668 41.8057 38.7867 33.1801C38.9636 39.5528 36.4511 42.6576 31.4881 48.109C20.2074 53.4971 13.7598 56.4021 0.63501 60.0521Z" fill="white"/>
<path fill-rule="evenodd" clip-rule="evenodd" d="M26.18 1C41.7291 21.3389 48.0758 33.1801 33.4786 47.4455C42.0159 43.0395 46.2511 39.981 49.7345 34.8389C52.1633 31.5788 53.7011 30.389 56.7014 29.1991C58.6597 28.7271 60.1087 28.9724 63.0047 29.8626C59.8016 26.6095 57.6966 24.3886 56.0379 24.2227C53.6199 24.1792 52.1627 24.4082 49.4028 25.218C42.5854 16.5029 37.6663 11.255 26.18 1ZM58.3601 26.545C58.2848 26.7678 58.0774 26.9432 57.6966 26.8768C57.4035 26.6893 57.2396 26.4247 56.8672 25.8815C57.7294 26.0184 58.0642 26.3115 58.3601 26.545Z" stroke="white" stroke-width="0.331754"/>
<path d="M0.63501 60.0521C22.9665 51.1193 35.9668 41.8057 38.7867 33.1801C38.9636 39.5528 36.4511 42.6576 31.4881 48.109C20.2074 53.4971 13.7598 56.4021 0.63501 60.0521Z" stroke="white" stroke-width="0.331754"/>
</svg>
